<svg xmlns="http://www.w3.org/2000/svg" viewBox="0 0 240 180"><title>firefighter-pride</title><defs><linearGradient id="pride" x1="0" y1="0" x2="0" y2="1"><stop offset="0" stop-color="#ed5265"/><stop offset=".2" stop-color="#f6a449"/><stop offset=".4" stop-color="#f8dc54"/><stop offset=".6" stop-color="#63b978"/><stop offset=".8" stop-color="#539bde"/><stop offset="1" stop-color="#a074c5"/></linearGradient></defs><path d="M78 52 53 27q17 2 37-13 30-20 60 0 20 15 37 13l-25 25 30-22q-2 15 13 34 16 21 0 42-15 19-13 34l-30-23 25 27q-18-2-38 13-29 19-58 0-20-15-38-13l25-27-30 23q2-15-13-34-16-21 0-42 15-19 13-34z" fill="url(#pride)" stroke="#f9efdb" stroke-width="7"/><path d="M78 52 53 27q17 2 37-13 30-20 60 0 20 15 37 13l-25 25 30-22q-2 15 13 34 16 21 0 42-15 19-13 34l-30-23 25 27q-18-2-38 13-29 19-58 0-20-15-38-13l25-27-30 23q2-15-13-34-16-21 0-42 15-19 13-34z" fill="none" stroke="#293440" stroke-width="2.5"/><circle cx="120" cy="83" r="45" fill="#e7bb64" stroke="#293440" stroke-width="3"/><circle cx="120" cy="83" r="34" fill="#df4561" stroke="#293440" stroke-width="3"/><text x="120" y="36" text-anchor="middle" font-family="Arial, sans-serif" font-size="27" font-weight="900" fill="#22333e" >A</text><text x="56" y="96" text-anchor="middle" font-family="Arial, sans-serif" font-size="30" font-weight="900" fill="#22333e" >I</text><text x="183" y="96" text-anchor="middle" font-family="Arial, sans-serif" font-size="30" font-weight="900" fill="#22333e" >F</text><text x="120" y="105" text-anchor="middle" font-family="Arial, sans-serif" font-size="58" font-weight="900" fill="#22333e" >F</text><text x="120" y="47" text-anchor="middle" font-family="Arial, sans-serif" font-size="6" font-weight="900" fill="#22333e" >ORGANIZED</text><text x="120" y="141" text-anchor="middle" font-family="Arial, sans-serif" font-size="11" font-weight="900" fill="#22333e" >AFL-CIO</text><g stroke="#f7f2df" stroke-width="7" stroke-linejoin="round" paint-order="stroke fill"><text x="120" y="178" text-anchor="middle" font-family="Arial, sans-serif" font-size="16" font-weight="900" fill="#364958" >FIREFIGHTER PRIDE</text></g></svg>
