<svg xmlns="http://www.w3.org/2000/svg" viewBox="0 0 240 180"><title>narcan</title><path d="M108 48V20q0-15 12-15t12 15v28" fill="#fffdf0" stroke="#e6dec8" stroke-width="2"/><rect x="110" y="69" width="20" height="45" rx="7" fill="#e92280" stroke="#ba155e" stroke-width="2"/><path d="M64 117V60q0-12 13-12h86q13 0 13 12v57h-20V87q0-14-16-14h-40q-16 0-16 14v30z" fill="#fffdf0" stroke="#e6dec8" stroke-width="3"/><path d="M76 54h5v5l4-3 3 5-5 3 5 3-3 5-4-3v5h-5v-5l-4 3-3-5 5-3-5-3 3-5 4 3z" fill="#db1671"/><text x="112" y="62" text-anchor="middle" font-family="Arial, sans-serif" font-size="12" font-weight="900" fill="#db1671" >NARCAN</text><text x="150" y="62" text-anchor="middle" font-family="Arial, sans-serif" font-size="6" font-weight="900" fill="#17232c" >NASAL SPRAY</text><text x="75" y="95" text-anchor="middle" font-family="Arial, sans-serif" font-size="9" font-weight="900" fill="#17232c" transform="rotate(-90 75 95)">4 mg</text><g stroke="#f7f2df" stroke-width="7" stroke-linejoin="round" paint-order="stroke fill"><text x="120" y="144" text-anchor="middle" font-family="Arial, sans-serif" font-size="15" font-weight="900" fill="#22333e" >Just because you Narcan</text></g><g stroke="#f7f2df" stroke-width="7" stroke-linejoin="round" paint-order="stroke fill"><text x="120" y="164" text-anchor="middle" font-family="Arial, sans-serif" font-size="14" font-weight="900" fill="#22333e" >Doesn’t mean you Narshould</text></g></svg>
